<?xml version="1.0"?>
<svg xmlns="http://www.w3.org/2000/svg" id="Layer_1" data-name="Layer 1" viewBox="0 0 512 512" width="512px" height="512px" class="hovered-paths"><g><title> Clipboard verification</title><path d="M115,426.206V117.145A33.184,33.184,0,0,1,138,85.52V84H117.85A33.033,33.033,0,0,0,85,117.145V426.206A32.734,32.734,0,0,0,117.85,459h30A32.734,32.734,0,0,1,115,426.206Z" style="fill:#6DC77A50" data-original="#D4E1F4" class="hovered-path active-path" data-old_color="#D4E1F4"/><path d="M197.024,249.94l-38.979,37.27L139,268.16a7,7,0,1,0-9.9,9.9l23.889,23.889a7,7,0,0,0,9.788.11l43.927-42a7,7,0,0,0-9.676-10.12Z" style="fill:#506EFA" data-original="#1AE5BE" class="" data-old_color="#1AE5BE"/><path d="M197.024,149.94l-38.979,37.27L139,168.16a7,7,0,1,0-9.9,9.9l23.889,23.889a7,7,0,0,0,9.788.11l43.927-42a7,7,0,0,0-9.676-10.12Z" style="fill:#506EFA" data-original="#1AE5BE" class="" data-old_color="#1AE5BE"/><path d="M197.024,349.94l-38.979,37.27L139,368.16a7,7,0,1,0-9.9,9.9l23.889,23.889a7,7,0,0,0,9.788.11l43.927-42a7,7,0,0,0-9.676-10.12Z" style="fill:#506EFA" data-original="#1AE5BE" class="" data-old_color="#1AE5BE"/><path d="M394.15,70H374V45.794a7,7,0,1,0-14,0V70H152V45.794a7,7,0,1,0-14,0V70H117.85A47.049,47.049,0,0,0,71,117.145V426.206A46.749,46.749,0,0,0,117.85,473h276.3A46.749,46.749,0,0,0,441,426.206V117.145A47.049,47.049,0,0,0,394.15,70ZM427,426.206A32.734,32.734,0,0,1,394.15,459H117.85A32.734,32.734,0,0,1,85,426.206V117.145A33.033,33.033,0,0,1,117.85,84H138v18.65a7,7,0,0,0,14,0V84H360v18.65a7,7,0,0,0,14,0V84h20.15A33.033,33.033,0,0,1,427,117.145Z" style="fill:#6DC77A" data-original="#0635C9" class="" data-old_color="#0635C9"/><path d="M377.954,269h-115a7,7,0,1,0,0,14h115a7,7,0,0,0,0-14Z" style="fill:#6DC77A" data-original="#0635C9" class="" data-old_color="#0635C9"/><path d="M377.954,169h-115a7,7,0,0,0,0,14h115a7,7,0,0,0,0-14Z" style="fill:#6DC77A" data-original="#0635C9" class="" data-old_color="#0635C9"/><path d="M377.954,369h-115a7,7,0,1,0,0,14h115a7,7,0,0,0,0-14Z" style="fill:#6DC77A" data-original="#0635C9" class="" data-old_color="#0635C9"/></g> </svg>
