<?xml version="1.0"?>
<svg xmlns="http://www.w3.org/2000/svg" id="Layer_1" viewBox="0 0 512 512" data-name="Layer 1" width="512px" height="512px" class=""><g><path d="m232.922 331.924a43.261 43.261 0 0 1 33.193-42.013 43.194 43.194 0 1 0 0 84.026 43.261 43.261 0 0 1 -33.193-42.013z" fill="#d4e1f4" data-original="#D4E1F4" class="active-path" style="fill:#6DC77A50" data-old_color="#d4e1f4"/><g fill="#1ae5be"><path d="m297.979 121h-13.268a3.409 3.409 0 0 1 -2.416-1 11.752 11.752 0 0 0 -5.89-3.407l-1.024-.207a10.676 10.676 0 0 0 -9.669 2.913l-1.7 1.7h-15.812l-2.333-2.622a9.461 9.461 0 0 0 -10.485-2.533l-.773.3a10.5 10.5 0 0 0 -4.421 3.524 3.413 3.413 0 0 1 -2.708 1.332h-13.459a42.732 42.732 0 0 0 -42.732 42.732v57.72a6 6 0 0 0 6 6h157.422a6 6 0 0 0 6-6v-57.725a42.731 42.731 0 0 0 -42.732-42.727zm-39.879 12-1.283 3.742h-1.626l-1.291-3.742zm-1.661 18.966 6.487 37.307-7.028 8.208-6.774-8.106zm72.276 63.486h-145.426v-51.725a30.766 30.766 0 0 1 30.732-30.727h13.459a15.365 15.365 0 0 0 11.106-4.75l1.635 1.837 5.352 14.893-8.779 44.9a6 6 0 0 0 1.284 5l13.155 15.742a6.007 6.007 0 0 0 4.569 2.152h.036a6 6 0 0 0 4.558-2.1l13.479-15.742a6 6 0 0 0 1.354-4.93l-8.082-46.473 4.573-13.267 1.939-1.94a15.372 15.372 0 0 0 10.542 4.67c.106.006.211.009.319.009h13.459a30.766 30.766 0 0 1 30.732 30.731z" data-original="#1AE5BE" class="" style="fill:#506EFA" data-old_color="#1AE5BE"/><path d="m256 105.958a37.526 37.526 0 0 0 37.484-37.484v-20.99a37.484 37.484 0 1 0 -74.968 0v20.99a37.526 37.526 0 0 0 37.484 37.484zm-25.484-58.474a25.484 25.484 0 1 1 50.968 0v20.99a25.484 25.484 0 1 1 -50.968 0z" data-original="#1AE5BE" class="" style="fill:#506EFA" data-old_color="#1AE5BE"/><path d="m287.484 172.558h20.207a6 6 0 0 0 0-12h-20.207a6 6 0 0 0 0 12z" data-original="#1AE5BE" class="" style="fill:#506EFA" data-old_color="#1AE5BE"/><path d="m100.319 377.708a37.527 37.527 0 0 0 37.481-37.484v-20.991a37.485 37.485 0 0 0 -74.969 0v20.991a37.526 37.526 0 0 0 37.488 37.484zm-25.484-58.475a25.485 25.485 0 0 1 50.969 0v20.991a25.485 25.485 0 0 1 -50.969 0z" data-original="#1AE5BE" class="" style="fill:#506EFA" data-old_color="#1AE5BE"/><path d="m142.3 392.745h-13.27a3.407 3.407 0 0 1 -2.691-1.321 8.173 8.173 0 0 0 -5.106-2.866 8.781 8.781 0 0 0 -9.761 5.686l-2.714 7.562a8.992 8.992 0 0 1 -6.276 5.787 8.825 8.825 0 0 1 -10.426-5.7l-2.594-7.526a8.87 8.87 0 0 0 -13.375-4.417 8.423 8.423 0 0 0 -1.71 1.617 3.41 3.41 0 0 1 -2.577 1.175h-13.46a42.732 42.732 0 0 0 -42.732 42.732v57.726a6 6 0 0 0 6 6h157.421a6 6 0 0 0 6-6v-57.723a42.731 42.731 0 0 0 -42.729-42.732zm30.729 94.455h-145.421v-51.723a30.767 30.767 0 0 1 30.732-30.732h13.46a15.319 15.319 0 0 0 7.811-2.129l1.1 3.189a20.815 20.815 0 0 0 39.272.251l1.235-3.441a15.3 15.3 0 0 0 7.3 2.121c.105.006.21.009.318.009h13.464a30.766 30.766 0 0 1 30.731 30.732z" data-original="#1AE5BE" class="" style="fill:#506EFA" data-old_color="#1AE5BE"/><path d="m411.681 377.708a37.526 37.526 0 0 0 37.484-37.484v-20.991a37.485 37.485 0 0 0 -74.969 0v20.991a37.527 37.527 0 0 0 37.485 37.484zm-25.481-58.475a25.485 25.485 0 0 1 50.969 0v20.991a25.485 25.485 0 0 1 -50.969 0z" data-original="#1AE5BE" class="" style="fill:#506EFA" data-old_color="#1AE5BE"/><path d="m453.66 392.745h-13.268a3.415 3.415 0 0 1 -2.7-1.33 8.1 8.1 0 0 0 -5.085-2.849 8.782 8.782 0 0 0 -9.771 5.685l-2.713 7.558a8.985 8.985 0 0 1 -6.275 5.784 8.826 8.826 0 0 1 -10.426-5.7l-3.283-9.527a6.339 6.339 0 0 0 -7.093-4.178l-3.021.531a6.823 6.823 0 0 0 -4.153 2.693 3.418 3.418 0 0 1 -2.706 1.33h-13.466a42.731 42.731 0 0 0 -42.731 42.732v57.726a6 6 0 0 0 6 6h157.423a6 6 0 0 0 6-6v-57.723a42.732 42.732 0 0 0 -42.732-42.732zm30.732 94.455h-145.421v-51.723a30.766 30.766 0 0 1 30.729-30.732h13.459a15.32 15.32 0 0 0 7.812-2.129l1.1 3.189a20.816 20.816 0 0 0 39.273.252l1.235-3.442a15.3 15.3 0 0 0 7.3 2.121q.158.009.318.009h13.46a30.767 30.767 0 0 1 30.732 30.732z" data-original="#1AE5BE" class="" style="fill:#506EFA" data-old_color="#1AE5BE"/></g><path d="m240.036 406.987a6 6 0 1 0 2.535-11.728 65.445 65.445 0 0 1 -21.622-9.129 6 6 0 0 0 -7.079.421l-10.6 8.781-10.559-10.558 8.782-10.605a6 6 0 0 0 .371-7.155 63.333 63.333 0 0 1 -9.08-21.546 6 6 0 0 0 -5.289-4.705l-13.784-1.328v-15.022l13.784-1.328a6 6 0 0 0 5.289-4.7 65.391 65.391 0 0 1 9.13-21.621 6 6 0 0 0 -.421-7.08l-8.782-10.606 10.559-10.557 10.6 8.781a6 6 0 0 0 7.155.371 63.345 63.345 0 0 1 21.546-9.079 6 6 0 0 0 4.705-5.289l1.328-13.785h15.023l1.328 13.785a6 6 0 0 0 4.705 5.289 65.4 65.4 0 0 1 21.622 9.129 6 6 0 0 0 7.079-.421l10.577-8.76 10.377 10.51-8.8 10.632a6 6 0 0 0 -.371 7.155 63.333 63.333 0 0 1 9.08 21.546 6 6 0 0 0 5.289 4.7l13.784 1.328v15.028l-13.56 1.323a6 6 0 0 0 -5.282 4.7 65.357 65.357 0 0 1 -9.13 21.621 6 6 0 0 0 .421 7.08l8.782 10.605-10.558 10.559-10.605-8.782a6 6 0 0 0 -7.155-.371 63.345 63.345 0 0 1 -21.546 9.079 6 6 0 1 0 2.535 11.728 75.814 75.814 0 0 0 21.836-8.441l11.488 9.513a6 6 0 0 0 8.069-.378l18.28-18.277a6 6 0 0 0 .379-8.07l-9.54-11.519a77.242 77.242 0 0 0 7.4-17.512l14.762-1.44a6 6 0 0 0 5.418-5.971v-25.924a6 6 0 0 0 -5.424-5.973l-14.985-1.444a75.839 75.839 0 0 0 -7.378-17.539l9.514-11.487a6 6 0 0 0 -.352-8.043l-18.053-18.284a6 6 0 0 0 -8.1-.405l-11.513 9.539a77.271 77.271 0 0 0 -17.506-7.4l-1.444-14.99a6 6 0 0 0 -5.973-5.424h-25.922a6 6 0 0 0 -5.972 5.424l-1.445 14.986a75.866 75.866 0 0 0 -17.538 7.376l-11.487-9.513a6 6 0 0 0 -8.069.378l-18.285 18.285a6 6 0 0 0 -.379 8.071l9.541 11.519a77.2 77.2 0 0 0 -7.4 17.507l-14.989 1.444a6 6 0 0 0 -5.424 5.973v25.921a6 6 0 0 0 5.425 5.972l14.984 1.444a75.839 75.839 0 0 0 7.378 17.539l-9.514 11.487a6 6 0 0 0 .379 8.07l18.285 18.284a6 6 0 0 0 8.069.378l11.519-9.539a76.223 76.223 0 0 0 21.803 8.467z" fill="#0635c9" data-original="#0635C9" class="" style="fill:#6DC77A" data-old_color="#0635c9"/><path d="m280.086 315.378a6 6 0 0 0 -8.484-.1l-21.117 20.617-9.855-9.622a6 6 0 0 0 -8.383 8.585l14.047 13.715a6 6 0 0 0 8.383 0l25.307-24.709a6 6 0 0 0 .102-8.486z" fill="#0635c9" data-original="#0635C9" class="" style="fill:#6DC77A" data-old_color="#0635c9"/><path d="m265.839 430.967h-3.724v-44.181a55.193 55.193 0 1 0 -12 0v44.181h-3.954a6 6 0 0 0 -6 6v49.194a15.839 15.839 0 1 0 31.678 0v-49.194a6 6 0 0 0 -6-6zm-52.917-99.043a43.194 43.194 0 1 1 43.193 43.194 43.243 43.243 0 0 1 -43.193-43.194zm46.917 111.043v7.678h-7.678v-7.678zm-3.839 47.033a3.843 3.843 0 0 1 -3.839-3.839v-23.516h7.678v23.516a3.843 3.843 0 0 1 -3.839 3.839z" fill="#0635c9" data-original="#0635C9" class="" style="fill:#6DC77A" data-old_color="#0635c9"/></g> </svg>
