<?xml version="1.0"?>
<svg xmlns="http://www.w3.org/2000/svg" id="Layer_1" height="512px" viewBox="0 0 512 512" width="512px" data-name="Layer 1" class=""><g><path d="m212 119.945a64.1 64.1 0 0 1 54-63.213 64 64 0 1 0 0 126.427 64.1 64.1 0 0 1 -54-63.214z" fill="#d4e1f4" data-original="#D4E1F4" class="active-path" style="fill:#6DC77A50" data-old_color="#d4e1f4"/><path d="m413.815 301.763h-151.815v-106.077a76 76 0 1 0 -12 0v106.077h-151.815a26.682 26.682 0 0 0 -26.653 26.652v23.585h12v-23.585a14.669 14.669 0 0 1 14.653-14.652h151.815v42.966h12v-42.966h151.815a14.669 14.669 0 0 1 14.653 14.652v23.585h12v-23.585a26.682 26.682 0 0 0 -26.653-26.652zm-221.815-181.818a64 64 0 1 1 64 64 64.072 64.072 0 0 1 -64-64z" fill="#0635c9" data-original="#0635C9" class="" style="fill:#6DC77A" data-old_color="#0635c9"/><g fill="#1ae5be"><path d="m289.54 350.917h-67.08a26.029 26.029 0 0 0 -26 26v65.138a26.029 26.029 0 0 0 26 26h67.08a26.029 26.029 0 0 0 26-26v-65.138a26.029 26.029 0 0 0 -26-26zm14 91.138a14.016 14.016 0 0 1 -14 14h-67.08a14.016 14.016 0 0 1 -14-14v-65.138a14.015 14.015 0 0 1 14-14h67.08a14.015 14.015 0 0 1 14 14z" data-original="#1AE5BE" class="" style="fill:#506EFA" data-old_color="#1AE5BE"/><path d="m468.9 350.917h-67.081a26.029 26.029 0 0 0 -26 26v65.138a26.029 26.029 0 0 0 26 26h67.081a26.029 26.029 0 0 0 26-26v-65.138a26.029 26.029 0 0 0 -26-26zm14 91.138a14.016 14.016 0 0 1 -14 14h-67.081a14.017 14.017 0 0 1 -14-14v-65.138a14.016 14.016 0 0 1 14-14h67.081a14.015 14.015 0 0 1 14 14z" data-original="#1AE5BE" class="" style="fill:#506EFA" data-old_color="#1AE5BE"/><path d="m136.181 442.055v-65.138a26.029 26.029 0 0 0 -26-26h-67.081a26.029 26.029 0 0 0 -26 26v65.138a26.029 26.029 0 0 0 26 26h67.081a26.029 26.029 0 0 0 26-26zm-107.081 0v-65.138a14.015 14.015 0 0 1 14-14h67.081a14.016 14.016 0 0 1 14 14v65.138a14.017 14.017 0 0 1 -14 14h-67.081a14.016 14.016 0 0 1 -14-14z" data-original="#1AE5BE" class="" style="fill:#506EFA" data-old_color="#1AE5BE"/><path d="m99.526 388.192-30.633 29.908-15.139-14.78a6 6 0 0 0 -8.383 8.586l19.329 18.872a6 6 0 0 0 8.383 0l34.825-34a6 6 0 1 0 -8.383-8.586z" data-original="#1AE5BE" class="" style="fill:#506EFA" data-old_color="#1AE5BE"/><path d="m458.246 388.192-30.634 29.908-15.138-14.78a6 6 0 1 0 -8.383 8.586l19.33 18.871a6 6 0 0 0 8.383 0l34.825-34a6 6 0 0 0 -8.383-8.586z" data-original="#1AE5BE" class="" style="fill:#506EFA" data-old_color="#1AE5BE"/><path d="m277.705 388.294a6 6 0 0 0 -8.484-.1l-13.121 12.806-12.809-13.119a6 6 0 1 0 -8.586 8.383l12.809 13.119-13.114 12.809a6 6 0 1 0 8.383 8.586l13.117-12.808 12.809 13.12a6 6 0 0 0 8.586-8.383l-12.809-13.12 13.12-12.809a6 6 0 0 0 .099-8.484z" data-original="#1AE5BE" class="" style="fill:#506EFA" data-old_color="#1AE5BE"/></g></g> </svg>
