<svg xmlns="http://www.w3.org/2000/svg" viewBox="0 0 131.79 118.59"><defs><style>.cls-1{fill:rgba(109, 199, 122, 0.8);opacity:0.15;}.cls-2{fill:#fff;}.cls-3,.cls-4{opacity:0.3;}.cls-4,.cls-6{fill:#6dc77a;}.cls-5{fill:#e2e9f1;}.cls-7{fill:#d5dfeb;}.cls-8{fill:#3e6177;}</style></defs><title>Asset 197</title><g id="Layer_2" data-name="Layer 2"><g id="Layer_1-2" data-name="Layer 1"><rect class="cls-1" x="-14.21" y="34.29" width="147" height="50" rx="25" ry="25" transform="translate(-24.56 59.29) rotate(-45)"/><path class="cls-2" d="M114.23,41.64V85.56a6.52,6.52,0,0,1-6.51,6.52l-79.66.05a6.52,6.52,0,0,1-6.52-6.55L21.72,42a6.52,6.52,0,0,1,6.48-6.49l79.47-.42A6.52,6.52,0,0,1,114.23,41.64Z"/><g class="cls-3"><rect class="cls-4" x="56.47" y="54.87" width="23.07" height="3" transform="translate(-19.7 66.86) rotate(-46.48)"/><rect class="cls-4" x="64.37" y="57.8" width="14.8" height="3" transform="translate(-20.48 71.82) rotate(-47.29)"/></g><path class="cls-5" d="M70.19,44.69h0a0,0,0,0,1,0,0v90.9a0,0,0,0,1,0,0h0a5.68,5.68,0,0,1-5.68-5.68V50.37A5.68,5.68,0,0,1,70.19,44.69Z" transform="translate(-22.79 157.48) rotate(-90)"/><path class="cls-6" d="M77.29,30.75a6.49,6.49,0,1,1,6.49-6.49A6.5,6.5,0,0,1,77.29,30.75Zm0-10a3.49,3.49,0,1,0,3.49,3.49A3.5,3.5,0,0,0,77.29,20.76Z"/><circle class="cls-6" cx="66.6" cy="27.89" r="2.13"/><circle class="cls-7" cx="31.77" cy="97.57" r="2.13"/><path class="cls-8" d="M42,106.29a5.37,5.37,0,1,1,5.37-5.37A5.38,5.38,0,0,1,42,106.29Zm0-7.74a2.37,2.37,0,1,0,2.37,2.37A2.37,2.37,0,0,0,42,98.55Z"/><path class="cls-8" d="M27,93.63a8,8,0,0,1-8-8.05L19.22,42a8,8,0,0,1,8-8l79.47-.42h0a8,8,0,0,1,8,8V85.56a8,8,0,0,1-8,8l-79.67.05Zm79.67-57h0L27.21,37a5,5,0,0,0-5,5L22,85.59a5,5,0,0,0,5,5h0l79.67-.05a5,5,0,0,0,5-5V41.64a5,5,0,0,0-5-5Z"/><path class="cls-8" d="M66.88,75.64a10.78,10.78,0,0,1-7.67-3.18L33.1,46.36l2.12-2.12L61.33,70.34a7.85,7.85,0,0,0,11.1,0L98.54,44.23l2.12,2.12L74.55,72.46A10.78,10.78,0,0,1,66.88,75.64Z"/><rect class="cls-8" x="25.65" y="69.58" width="29.3" height="3" transform="translate(-39.72 54.53) rotate(-48.76)"/><rect class="cls-8" x="91.97" y="56.43" width="3" height="29.3" transform="translate(-23.68 79.22) rotate(-41.23)"/><rect class="cls-2" x="104.89" y="38.89" width="2" height="10.84"/><rect class="cls-2" x="104.89" y="51.28" width="2" height="4.65"/><rect class="cls-2" x="104.89" y="57.47" width="2" height="1.55"/><rect class="cls-2" x="106.32" y="43.88" width="2" height="12.69"/><rect class="cls-2" x="106.32" y="58.38" width="2" height="5.44"/><rect class="cls-2" x="106.32" y="65.63" width="2" height="1.81"/><circle class="cls-2" cx="105.62" cy="41.95" r="26.17"/><circle class="cls-6" cx="106.53" cy="41.95" r="21.23"/><path class="cls-8" d="M105.62,64.68a22.73,22.73,0,1,1,22.73-22.73A22.76,22.76,0,0,1,105.62,64.68Zm0-42.47a19.73,19.73,0,1,0,19.73,19.73A19.76,19.76,0,0,0,105.62,22.22Z"/><path class="cls-2" d="M103.7,51.43a1.92,1.92,0,0,1-1.1-.35l-7.67-5.37a1.5,1.5,0,0,1,1.72-2.46L103.47,48l11.13-14.84A1.5,1.5,0,1,1,117,35L105.24,50.65A1.92,1.92,0,0,1,103.7,51.43Z"/></g></g></svg>