<svg width="135" height="187" viewBox="0 0 135 187" fill="none" xmlns="http://www.w3.org/2000/svg">
<path d="M132.952 184.754C119.949 183.626 106.6 174.779 105.575 160.299C104.791 149.216 111.224 137.776 117.586 129.465C118.635 128.093 127.645 117.091 129.762 124.24C133.634 137.312 123.59 147.043 111.83 150.233C94.3578 154.972 77.135 148.54 64.8948 135.518C49.7105 119.364 36.0173 91.6745 46.9128 70.0463C51.9934 59.9613 58.889 55.0383 69.5446 52.2103C78.0274 49.9583 88.6442 48.7683 95.5555 55.9243C106.93 67.7003 95.7503 81.7143 84.4852 87.852C61.6583 100.29 29.9092 90.4538 17.9422 67.5083C7.44549 47.3813 3.87618 24.1483 2.48584 1.75529" stroke="#FD866C" stroke-width="3" stroke-linecap="round"/>
</svg>
