<svg width="134" height="134" viewBox="0 0 134 134" fill="none" xmlns="http://www.w3.org/2000/svg">
<path d="M1.76949 -24.7526C14.7725 -23.6242 28.1215 -14.7772 29.1465 -0.297615C29.9305 10.7853 23.4975 22.2253 17.1355 30.5367C16.0865 31.9085 7.07648 42.9105 4.95948 35.7617C1.08748 22.6896 11.1315 12.9588 22.8915 9.76908C40.3637 5.02988 57.5865 11.4611 69.8267 24.4834C85.011 40.6381 98.7042 68.3271 87.8087 89.9553C82.7281 100.04 75.8325 104.963 65.1769 107.791C56.6941 110.043 46.0773 111.233 39.166 104.077C27.7915 92.3013 38.9712 78.2873 50.2363 72.1496C73.0632 59.7116 104.812 69.5478 116.779 92.4933C127.276 112.62 130.845 135.853 132.236 158.246" stroke="#FD866C" stroke-width="3" stroke-linecap="round"/>
</svg>
