<svg width="114" height="114" viewBox="0 0 114 114" fill="none" xmlns="http://www.w3.org/2000/svg">
<mask id="mask0_526_5055" style="mask-type:luminance" maskUnits="userSpaceOnUse" x="4" y="0" width="110" height="110">
<path d="M4.72473 0.753296H113.204V109.137H4.72473V0.753296Z" fill="white"/>
</mask>
<g mask="url(#mask0_526_5055)">
<path d="M5.18102 108.954C15.0509 109.298 25.2769 108.48 33.7745 102.912C41.5526 97.8162 46.6629 89.3796 47.7244 80.0855C48.243 75.5463 47.7181 70.9009 45.9415 66.6834C44.4116 63.0513 41.9467 59.624 38.5283 57.6C35.1352 55.5912 30.7351 55.2439 27.3897 57.5602C23.9742 59.9251 22.6393 64.3273 22.6578 68.3401C22.6782 72.6838 24.3633 76.8415 27.1921 80.0924C30.2832 83.6444 34.5135 85.7554 38.9816 86.9681C43.9893 88.3276 49.2539 89.0491 54.4226 89.3752C59.7985 89.7136 65.2211 89.4769 70.5168 88.4524C79.4157 86.7289 87.8209 82.6459 94.537 76.478C101.519 70.065 106.253 61.6049 109.299 52.658C110.699 48.549 111.835 44.2927 112.464 39.9892C112.986 36.4175 113.203 32.7996 113.197 29.1906C113.185 21.2919 112.227 13.0582 109.105 5.75079C108.4 4.101 107.568 2.50868 106.574 1.01754C106.318 0.632961 105.697 0.994451 105.955 1.38246C110.144 7.66875 111.658 15.5945 112.239 23.0262C112.794 30.1386 112.494 37.3875 110.902 44.3516C108.834 53.3928 105.327 62.2925 99.7198 69.7104C94.3308 76.839 86.9302 82.2869 78.6169 85.4195C69.253 88.9484 59.0897 89.4052 49.2461 88.1567C46.6693 87.8305 44.0983 87.4008 41.5589 86.8492C39.1835 86.333 36.8193 85.6724 34.6015 84.6567C30.7005 82.8704 27.3595 79.9696 25.3314 76.1278C23.3476 72.37 22.7945 67.8469 24.0068 63.7463C24.5764 61.817 25.5751 59.9944 27.1094 58.6796C28.6968 57.3191 30.7648 56.6383 32.8361 56.6594C36.6573 56.6987 39.9974 59.0204 42.3295 61.9285C44.9374 65.181 46.5136 69.3111 47.0088 73.4486C48.0975 82.5487 44.6217 92.08 38.1537 98.4645C35.0384 101.54 31.2639 103.902 27.2014 105.475C22.5605 107.273 17.602 108.033 12.6546 108.242C10.1649 108.347 7.67222 108.318 5.18248 108.232C4.72034 108.215 4.72083 108.938 5.18102 108.954Z" fill="#21D594"/>
</g>
<path d="M7.87316 102.628C6.58889 103.451 5.30462 104.275 4.02035 105.098C3.38016 105.508 2.74046 105.918 2.09978 106.329C1.58267 106.661 1.02615 106.977 0.645737 107.475C0.262402 107.975 0.109165 108.647 0.328075 109.255C0.53239 109.82 0.966804 110.241 1.45911 110.561C1.68483 110.708 1.9232 110.825 2.16497 110.94C2.47096 111.086 2.77792 111.23 3.08536 111.373C3.59713 111.612 4.11132 111.846 4.62551 112.078C5.64807 112.539 6.67013 112.999 7.68393 113.478C7.84738 113.555 8.01132 113.632 8.17477 113.71C8.34357 113.791 8.56929 113.763 8.66464 113.581C8.7488 113.42 8.71718 113.172 8.53621 113.086C7.49323 112.589 6.44198 112.108 5.38829 111.634C4.91253 111.42 4.43628 111.205 3.96246 110.987C3.3894 110.724 2.81148 110.466 2.24864 110.181C2.02292 110.066 1.80839 109.935 1.60456 109.785C1.58753 109.772 1.55348 109.742 1.62937 109.804C1.61818 109.795 1.60748 109.787 1.59726 109.779C1.57148 109.758 1.54521 109.736 1.51943 109.714C1.47078 109.672 1.4236 109.628 1.37835 109.583C1.33603 109.54 1.29468 109.496 1.25577 109.451C1.23631 109.429 1.21928 109.402 1.19836 109.382C1.25674 109.439 1.23387 109.43 1.21782 109.407C1.20663 109.391 1.19447 109.376 1.18328 109.359C1.14728 109.308 1.11469 109.255 1.08404 109.2C1.06994 109.174 1.05631 109.147 1.04367 109.121C1.03783 109.109 1.03296 109.097 1.02713 109.085C0.996479 109.022 1.05485 109.16 1.03248 109.098C1.01156 109.043 0.992587 108.986 0.97702 108.928C0.968264 108.896 0.961453 108.862 0.954643 108.829C0.95221 108.816 0.949778 108.802 0.947832 108.789C0.935184 108.713 0.956102 108.88 0.949778 108.803C0.9454 108.739 0.941508 108.676 0.943454 108.612C0.944427 108.578 0.946373 108.545 0.949292 108.512C0.95367 108.468 0.975074 108.467 0.945886 108.529C0.954156 108.511 0.95367 108.481 0.957075 108.461C0.969723 108.397 0.986263 108.333 1.00767 108.27C1.01691 108.244 1.03296 108.216 1.03783 108.189C1.02469 108.266 1.01545 108.24 1.03102 108.208C1.04026 108.188 1.04902 108.169 1.05923 108.15C1.08793 108.094 1.12004 108.039 1.15507 107.986C1.17258 107.96 1.19107 107.934 1.20955 107.908C1.24458 107.86 1.19642 107.929 1.19155 107.932C1.20712 107.92 1.21928 107.898 1.23144 107.882C1.31755 107.78 1.41289 107.686 1.51408 107.599C1.53792 107.578 1.56224 107.558 1.58608 107.538C1.60651 107.521 1.69407 107.457 1.60407 107.523C1.66002 107.482 1.71499 107.44 1.77239 107.4C1.88671 107.32 2.00444 107.245 2.12167 107.17C2.74922 106.767 3.37627 106.365 4.0043 105.963C5.25938 105.158 6.51446 104.354 7.76954 103.549C7.92375 103.45 8.07894 103.351 8.23363 103.251C8.39173 103.15 8.46957 102.925 8.36206 102.757C8.26136 102.598 8.04294 102.519 7.87316 102.628Z" fill="#21D594"/>
</svg>
